<svg xmlns="http://www.w3.org/2000/svg" width="938" height="264" fill="none">
  <path fill="#fff" fill-rule="evenodd" d="M904.5 162.7c0 .3-.2.5-.5.5-7.8 0-11.9 2-18.5 5.2l-1.6.8c-1 .5-2 .2-3-.4-1.1-.7-2.3-1.7-3.5-3a89.9 89.9 0 0 1-7.7-10.5l-5.2-8-2.2-3.5a122.4 122.4 0 0 0-5-7c-13-11.5-31.1-2.1-34.2 14.1-.8 4-1.6 7-2.5 9.3a11 11 0 0 1-3 4.5c-2.3 1.6-4.8.5-7.4-1L808 162c-2-1.4-4-2.8-6.3-3.7a11.2 11.2 0 0 0-10.5.6 26 26 0 0 0-4.8 4.5 132.7 132.7 0 0 0-10.5 13.7 208.7 208.7 0 0 1-2 2.8l-.2.1h-.3c-.3 0-.4-.3-.4-.5-.6-5.7-3.4-12-7.3-16.5s-8.9-7.3-13.9-6.4c-8 1.4-12.7 7-16.6 14a155 155 0 0 0-5.6 10.6 53 53 0 0 1-6.3 10 2 2 0 0 1-1 .6 2 2 0 0 1-1.1-.1c-.7-.3-1.3-1-1.8-1.6l-.8-1-.7-1a7 7 0 0 0-.7-.8l-.6-.3c-1.8-.6-4.3-.8-6.9-.6-2.6.1-5 .6-7 1.1-3 1-6.9 3.3-11.2 6.2l-7.2 5.2-6.5 4.6a85.1 85.1 0 0 1-13.6 8.3c-4.3 1.8-8.3 2.6-11.4 1.3-2.4-1-4.6-2.2-6.6-3.3l-1-.5-4.8-2.5a29.6 29.6 0 0 0-13.4-3c-2.5 0-4 .6-5 1.3a7 7 0 0 0-1.1 1.3l-.5.7-.5.8c-.4.4-.8.9-1.3 1.2-.6.3-1.2.5-2 .5-1.6 0-3.8-.8-7.2-2.5a63.8 63.8 0 0 1-15.8-12.9c-4-4-8-7.8-12.5-10.9l-7.2-5.8a242.1 242.1 0 0 0-20.3-16.1 55 55 0 0 0-16.6-8.8c-2.4-.7-4.6-.8-6.3-.3a6.8 6.8 0 0 0-4 3.8 43.4 43.4 0 0 0-2.3 21.1c.2 7.4 0 14.8-4.2 21.2a58 58 0 0 0-10.2 31.8 185.5 185.5 0 0 1-3.8 29.3c-.4 1.3-.7 2.3-1.2 2.9-.2.3-.5.6-.8.7-.4 0-.7 0-1-.3-2.7-2.7-7.3-4-12.8-4.6-4.7-.6-10-.7-15.2-.7h-2.7c-6-.1-12-.3-16.9-1.4-4.8-1.1-8.6-3.2-10-7a29.2 29.2 0 0 1-1.9-8.4c-.1-1.6-.3-3-.6-4.3a6.4 6.4 0 0 0-2.5-3.8c-1.3-1-3.4-1.6-6.6-1.8-4.6-.3-7.7-1.3-9.8-2.9a10.4 10.4 0 0 1-3.7-6.6 48 48 0 0 1-.7-8.1l-.1-1.4a77 77 0 0 0-1.8-14.8 294 294 0 0 0-1-6.2c-.4-1.6-.8-3-1.3-4l-.8-.8h-.9c-8.3 3.8-16.9 6.4-25.5 9l-.5.2a63.2 63.2 0 0 1-14.7 3.4c-3.3.2-5.4-.6-6.7-2.5-.7-1-1.2-2-1.7-3.4l-1.2-4.7v-.2c-1-3.5-2-7.8-4-13a28.5 28.5 0 0 0-7-10.2 97.4 97.4 0 0 0-3.8-3.6l-.5-.4-4.5-4.4a27 27 0 0 0-5-3.6l-2.9-1.8-3.7-2.2a37.2 37.2 0 0 1-6-4.5 8.8 8.8 0 0 1-3-5.1c-.3-3.9-1.6-5.7-3.3-6.3-1.7-.7-4-.2-6.6 1a54 54 0 0 0-12.6 9.2l-8 7.4c-19.4 17.8-36.8 33.8-49.6 59.9v.2c-1.2 2.4-5.3 10.7-9.3 16-1 1.4-2 2.6-3 3.5-1 .8-2 1.4-2.9 1.4-1 0-1.8-.7-2.3-2-.5-1.3-.9-3.2-1-5.8a78.6 78.6 0 0 0-6-24.6 355 355 0 0 0-8.2-18.3l-2.2-4.6c-13-28.2-27.6-57.2-50.4-75.7l-4.5-3.6a67.2 67.2 0 0 1-8.5-7.4 66.4 66.4 0 0 1-11.2-18c-4.4-8.3-9-17.3-14.6-23.6-3-3.3-6.4-5.9-10-7-3.8-1.2-8-1.1-12.7.9a17 17 0 0 0-5.2 4 58.2 58.2 0 0 0-5.3 6.5 181.8 181.8 0 0 0-8.4 13.5C63.5 88.3 45.8 106 28 124c-3 2.8-5.8 5.7-8.7 8.7-.2.2-.5.2-.7 0a.7.7 0 0 1 0-1c3-2.8 5.8-5.7 8.7-8.6 17.9-18 35.5-35.6 49.2-58.3l1.2-2c1.9-3.2 4.5-7.5 7.3-11.5 1.7-2.4 3.5-4.8 5.4-6.7 1.8-2 3.7-3.4 5.5-4.2 4.9-2.1 9.2-2.2 13.2-1 4 1.3 7.4 4 10.5 7.4 5.8 6.4 10.5 15.6 14.8 24l1 2a65.3 65.3 0 0 0 10 15.8c2.2 2.4 4.8 4.4 8.3 7.2l4.5 3.6c23 18.8 37.7 48 50.8 76.1l2.2 4.6a297 297 0 0 1 8.2 18.4 79.9 79.9 0 0 1 6.1 25c.1 2.6.4 4.3.9 5.3.4 1 1 1.4 1.5 1.4s1.3-.4 2.2-1.2c1-.7 1.9-1.9 2.9-3.2 3.9-5.3 7.9-13.5 9-16h.2c12.8-26.4 30.4-42.5 49.8-60.3l8-7.4c2.2-2 7.7-7 12.9-9.4 2.5-1.2 5.1-1.8 7.2-1 2.2.8 3.7 3.1 4 7.2.2 1.5 1.1 3 2.7 4.4 1.5 1.5 3.6 3 5.8 4.3l3.6 2.3 3 1.7c2 1.3 3.9 2.6 5.1 3.9 1.5 1.5 3 3 4.6 4.3l.4.4 4 3.6c2.8 2.8 5.3 6 7.1 10.6 2 5.3 3.1 9.7 4 13.2v.2c.5 1.8.8 3.3 1.3 4.6a11 11 0 0 0 1.4 3c1.1 1.6 2.8 2.3 6 2.2 3.1-.2 7.7-1.3 14.4-3.4l.6-.1c8.6-2.7 17-5.3 25.3-9 .6-.3 1.2-.3 1.7 0 .4.2.8.6 1.2 1.2.6 1 1.1 2.6 1.5 4.3a68.5 68.5 0 0 1 1 6.3l.5 2.8c.9 4.5 1.1 8.6 1.3 12.2v1.3c.2 3 .3 5.7.8 8a9.3 9.3 0 0 0 3.3 5.9c1.9 1.4 4.8 2.3 9.3 2.6 3.3.2 5.5.9 7 2a7.6 7.6 0 0 1 3 4.5c.3 1.3.5 2.9.6 4.5l.2 1.3a28 28 0 0 0 1.5 6.6c1.3 3.4 4.6 5.3 9.4 6.4 4.7 1 10.6 1.3 16.8 1.4h2.6c5.2 0 10.6.1 15.3.7 5.5.6 10.4 2 13.3 4.9h.2l.2-.3c.4-.4.7-1.2 1-2.4.7-2.4 1.4-6 2-9.8a215 215 0 0 0 1.8-19.2c0-12 4.3-23.4 10.4-32.5 4-6 4.2-13 4-20.4v-1.7c-.3-6.7-.5-13.7 2.4-20 1-2.4 2.6-3.8 4.6-4.4 2-.6 4.3-.5 6.8.2 5 1.4 11 4.8 17 9a242.8 242.8 0 0 1 20.4 16.2c3.2 2.7 5.6 4.8 7 5.7 4.5 3.1 8.6 7.1 12.6 11l1.6 1.6c4.5 4.4 9 8.5 14 11a17 17 0 0 0 6.8 2.5c.7 0 1.1-.1 1.5-.4.4-.2.7-.5 1-1l.5-.6.5-.7 1.4-1.5c1.2-1 2.8-1.6 5.5-1.6 5.7 0 9.8 1.3 13.8 3.1l4.8 2.5 1 .6c2 1 4.1 2.2 6.5 3.2 2.8 1.2 6.5.5 10.7-1.3 4.2-1.9 8.8-4.9 13.5-8.2l6.4-4.5 7.3-5.3c4.3-3 8.3-5.4 11.5-6.3 2-.6 4.5-1 7.1-1.2a19 19 0 0 1 7.3.7c.3 0 .6.3.9.5l.8.9.8 1 .7 1 1.4 1.3h.6s.3 0 .5-.3a51.9 51.9 0 0 0 8.2-13.6c1.1-2.3 2.3-4.6 3.6-6.8 4-7 8.8-13 17.3-14.5 5.4-1 10.7 2 14.7 6.8a33.2 33.2 0 0 1 7.5 16l1.3-1.8 4.8-6.6c1.8-2.5 3.9-5 5.7-7.2 1.9-2.1 3.7-4 5-4.7 4.2-2.4 8-2 11.3-.7a37 37 0 0 1 6.6 3.8l2.2 1.5c2.6 1.6 4.6 2.4 6.4 1 .9-.6 1.7-1.8 2.6-4a49 49 0 0 0 2.4-8.9c3.3-17 22.2-27 35.8-14.8.6.5 1.3 1.5 2.2 2.7l3 4.5 2.3 3.6 5 8a89 89 0 0 0 7.7 10.2c1.2 1.3 2.3 2.3 3.2 2.8 1 .6 1.7.7 2.2.4l1.6-.7a38 38 0 0 1 18.9-5.3c.3 0 .5.2.5.6Z" clip-rule="evenodd"/>
  <path fill="#fff" d="M74 10.8h3c1.7 0 2.4-1 2.4-2.2 0-1.4-.8-2.1-1.5-2.1v-.1c.7-.2 1.2-.8 1.2-1.8 0-1.3-.7-2.2-2.2-2.2H74v8.4Zm1.2-1V7h1.6c.9 0 1.4.7 1.4 1.5 0 .7-.4 1.2-1.4 1.2h-1.6Zm0-3.8V3.4h1.5c.9 0 1.3.6 1.3 1.3 0 .8-.6 1.3-1.3 1.3h-1.5Zm6.9 4.8h4.6v-1h-3.5V7h3.3V6h-3.3V3.4h3.5v-1H82v8.4Zm7 0h.3c1.7 0 2-1.4 2.2-4.1V3.4h2.6v7.4h1V2.4h-4.6v4c-.2 2.4-.4 3.3-1.3 3.3h-.2v1.1Zm9.2-8.4v8.4h1l3.7-6.2h.1v6.2h1.1V2.4h-1l-3.7 6.2V2.4h-1.2Zm13.3 8.4h1.4l-3-4.6 3-3.8h-1.4l-2.8 3.5h-.4V2.4h-1v8.4h1V7h.8l2.4 3.8Zm4-8.4v8.4h1l3.7-6.2v6.2h1.1V2.4h-1l-3.7 6.2V2.4h-1.1Zm8.9 0v8.4h1l3.7-6.2h.1v6.2h1.1V2.4h-1l-3.7 6.2V2.4h-1.2Zm3.7-2.2c0 .4-.2.8-.7.8-.5 0-.7-.4-.7-.8h-.9c0 1 .6 1.6 1.6 1.6S129 1 129 .2h-.8ZM69.5 24.8h1.1v-3.7h3.7v3.7h1v-8.5h-1V20h-3.7v-3.7h-1v8.5Zm15.3-4.2c0-2.7-1.4-4.4-3.3-4.4s-3.3 1.7-3.3 4.4 1.4 4.3 3.3 4.3 3.3-1.6 3.3-4.3Zm-1.1 0c0 2-1 3.2-2.2 3.2-1.3 0-2.2-1.2-2.2-3.2s1-3.2 2.2-3.2c1.3 0 2.2 1.1 2.2 3.2Zm3.9 4.2h2.8c1.7 0 2.5-1 2.5-2.3 0-1.3-.8-2-1.5-2v-.1c.6-.2 1.2-.8 1.2-1.8 0-1.3-.7-2.3-2.3-2.3h-2.7v8.5Zm1.1-1V21h1.7c.8 0 1.4.7 1.4 1.5 0 .7-.4 1.2-1.5 1.2h-1.6Zm0-3.8v-2.6h1.5c1 0 1.3.6 1.3 1.3 0 .8-.5 1.3-1.3 1.3h-1.5Zm11.5-3.7h-4.5v8.5h1v-7.4h3.5v-1Zm8.8 4.3c0-2.7-1.4-4.4-3.3-4.4s-3.3 1.7-3.3 4.4 1.4 4.3 3.3 4.3 3.3-1.6 3.3-4.3Zm-1.1 0c0 2-1 3.2-2.2 3.2-1.3 0-2.2-1.2-2.2-3.2s1-3.2 2.2-3.2c1.3 0 2.2 1.1 2.2 3.2Zm3.9 4.2h1.1v-3h1.5c1.7 0 2.6-1.1 2.6-2.7s-.9-2.8-2.6-2.8h-2.6v8.5Zm1.1-4v-3.4h1.4c1.1 0 1.5.7 1.5 1.7s-.4 1.7-1.5 1.7H113Zm13.1-.2c0-2.7-1.3-4.4-3.2-4.4-2 0-3.3 1.7-3.3 4.4s1.4 4.3 3.3 4.3 3.3-1.6 3.3-4.3Zm-1 0c0 2-1 3.2-2.2 3.2-1.3 0-2.2-1.2-2.2-3.2s1-3.2 2.2-3.2c1.2 0 2.2 1.1 2.2 3.2Zm3.4 6.3h1v-2h5v2h1v-3.2h-.9v-7.4h-4.4l-.2 3.6c-.1 2.4-.6 3.4-1 3.8h-.5V27Zm1.7-3.2c.5-.7.7-2 .8-3.8l.1-2.5h2.5v6.3H130ZM5.9 145.7H.3v8.5h1v-7.4h3.5v7.4h1v-8.5Zm9.2 2.8c-.2-1.9-1.5-3-3-3-1.9 0-3.3 1.7-3.3 4.4s1.4 4.4 3.3 4.4c1.6 0 2.8-1.2 3-2.9H14c-.2 1.1-1 1.7-1.9 1.7-1.2 0-2.2-1-2.2-3.2 0-2 1-3.2 2.2-3.2 1 0 1.7.7 1.9 1.8h1Zm7.1 5.7h1.4l-3-4.7 3-3.8h-1.4l-2.8 3.6H19v-3.6h-1v8.5h1v-3.8h.8l2.4 3.8Zm9.9-4.2c0-2.8-1.4-4.4-3.2-4.4-2 0-3.3 1.6-3.3 4.3 0 2.7 1.4 4.4 3.3 4.4 1.8 0 3.2-1.7 3.2-4.4Zm-1 0c0 2-1 3.1-2.2 3.1-1.3 0-2.2-1.1-2.2-3.2 0-2 .9-3.2 2.2-3.2 1.2 0 2.1 1.2 2.1 3.2Zm3.9 4.2h2.8c1.7 0 2.4-1 2.4-2.3 0-1.3-.8-2-1.5-2.1.7-.3 1.3-.8 1.3-1.9 0-1.2-.8-2.2-2.3-2.2H35v8.5Zm1-1.1v-2.7h1.7c.9 0 1.4.6 1.4 1.4 0 .7-.4 1.3-1.4 1.3H36Zm0-3.7v-2.6h1.6c.9 0 1.3.5 1.3 1.2 0 .8-.6 1.4-1.3 1.4H36Zm127.5 28.9h2.2v7.3h1.1v-7.3h2.3v-1.1h-5.6v1Zm8.4 7.3h2.7c1.7 0 2.5-1 2.5-2.2 0-1.4-.8-2.1-1.5-2.1v-.1c.7-.2 1.2-.8 1.2-1.8 0-1.3-.7-2.2-2.3-2.2H172v8.4Zm1-1v-2.8h1.7c.9 0 1.4.7 1.4 1.5 0 .7-.4 1.2-1.5 1.2H173Zm0-3.8v-2.6h1.5c1 0 1.3.6 1.3 1.3 0 .8-.5 1.3-1.3 1.3H173Zm7 4.8h4.6v-1H181v-2.7h3.2v-1H181v-2.6h3.5v-1.1h-4.6v8.4Zm7.5 0h1.1v-3h1.5c1.7 0 2.5-1.1 2.5-2.7s-.8-2.7-2.5-2.7h-2.6v8.4Zm1.1-4v-3.3h1.4c1 0 1.5.6 1.5 1.6s-.4 1.7-1.5 1.7h-1.4Zm7.9-1v-3.4h-1v8.4h2.7c1.6 0 2.5-1 2.5-2.5 0-1.6-1-2.5-2.5-2.5h-1.7Zm0 1h1.7c.9 0 1.4.7 1.4 1.4 0 .8-.5 1.6-1.4 1.6h-1.7v-3Zm65.3 29.7v-8.5H259c-1.7 0-2.6 1-2.6 2.7 0 1 .5 2 1.4 2.3l-1.6 3.5h1.2l1.5-3.2h1.6v3.2h1Zm-1.1-4.3h-1.4c-1.1 0-1.6-.6-1.6-1.5 0-1 .5-1.6 1.6-1.6h1.4v3Zm4.1 4.3h1.1v-3h1.5c1.7 0 2.6-1.2 2.6-2.8 0-1.5-.9-2.7-2.6-2.7h-2.6v8.5Zm1.1-4v-3.4h1.4c1.1 0 1.6.7 1.6 1.6 0 1-.5 1.7-1.6 1.7h-1.4Zm13.2-.3c0-2.7-1.4-4.3-3.3-4.3s-3.3 1.6-3.3 4.3c0 2.7 1.4 4.4 3.3 4.4s3.3-1.7 3.3-4.4Zm-1.1 0c0 2.1-1 3.2-2.2 3.2-1.3 0-2.2-1.1-2.2-3.2 0-2 1-3.2 2.2-3.2 1.2 0 2.2 1.2 2.2 3.2Zm10-1.4c-.3-1.9-1.5-3-3-3-2 0-3.3 1.7-3.3 4.4s1.4 4.4 3.3 4.4c1.6 0 2.7-1.2 3-2.9h-1.1a2 2 0 0 1-2 1.7c-1.2 0-2.1-1-2.1-3.2 0-2 1-3.2 2.2-3.2.9 0 1.7.7 1.9 1.8h1Zm2.2 5.7h.3c1.7 0 2.1-1.5 2.2-4.2l.1-3.2h2.5v7.4h1v-8.5h-4.5l-.2 4c0 2.4-.3 3.3-1.2 3.4h-.2v1Zm9.9 0 .7-2.3h2.8l.7 2.3h1.1l-2.6-8.5h-1.3l-2.6 8.5h1.2Zm1-3.3 1-3.7h.1l1 3.7H301Zm6.9 3.3h2.8c1.6 0 2.4-1 2.4-2.3 0-1.3-.8-2-1.5-2.1.7-.3 1.2-.8 1.2-1.9 0-1.2-.7-2.2-2.3-2.2H308v8.5Zm1-1.1v-2.7h1.7c.9 0 1.4.6 1.4 1.4 0 .7-.4 1.3-1.4 1.3H309Zm0-3.7v-2.6h1.6c.8 0 1.3.5 1.3 1.2 0 .8-.6 1.4-1.4 1.4H309Zm6.5 4.8h.3c1.6 0 2-1.5 2.1-4.2l.1-3.2h2.5v7.4h1.1v-8.5h-4.6l-.1 4c-.1 2.4-.4 3.3-1.2 3.4h-.2v1Zm10.3-5.1v-3.4h-1v8.5h2.6c1.7 0 2.6-1 2.6-2.6 0-1.5-1-2.5-2.6-2.5h-1.6Zm0 1h1.6c1 0 1.5.7 1.5 1.5s-.5 1.5-1.5 1.5h-1.6v-3Zm14.1-74.3v8.5h1v-6.2h.1l2.2 6.1h.8l2.2-6v6h1V133h-1.3l-2.3 6.6-2.4-6.6h-1.3Zm11.2 8.5.7-2.3h2.9l.6 2.3h1.2l-2.6-8.5h-1.3l-2.6 8.5h1.2Zm1-3.4 1.1-3.6 1.2 3.6H352Zm7 3.4h1v-3.7h3.7v3.7h1v-8.5h-1v3.7H360v-3.7h-1v8.5Zm8.5-7.4h2.3v7.4h1V134h2.4v-1.1h-5.7v1Zm8.9 7.5h.5c1.1 0 1.5-.8 1.8-1.6l2.6-7H380l-1.7 4.9-1.9-5h-1.2l2.6 6.4-.1.3c-.2.5-.4.8-1 .8h-.4v1.2Zm7.4-.1h1v-3h1.6c1.7 0 2.5-1.2 2.5-2.8 0-1.5-.8-2.7-2.5-2.7h-2.6v8.5Zm1-4.1V134h1.5c1 0 1.5.7 1.5 1.6 0 1-.4 1.7-1.5 1.7h-1.4Zm13.2-.2c0-2.7-1.4-4.3-3.3-4.3s-3.2 1.6-3.2 4.3c0 2.7 1.3 4.4 3.2 4.4 2 0 3.3-1.7 3.3-4.4Zm-1 0c0 2-1 3.2-2.3 3.2-1.2 0-2.2-1.1-2.2-3.2 0-2 1-3.2 2.2-3.2 1.3 0 2.2 1.1 2.2 3.2Zm3.9 4.3h2.8c1.7 0 2.4-1 2.4-2.3 0-1.3-.8-2-1.5-2.1v-.1c.7-.2 1.2-.7 1.2-1.8 0-1.3-.7-2.2-2.3-2.2H401v8.5Zm1-1.1v-2.8h1.7c.9 0 1.4.7 1.4 1.5 0 .7-.4 1.3-1.4 1.3H402Zm0-3.8V134h1.6c.8 0 1.3.5 1.3 1.2 0 .8-.6 1.3-1.4 1.3H402Zm13.3.6c0-2.7-1.4-4.3-3.2-4.3-2 0-3.3 1.6-3.3 4.3 0 2.7 1.4 4.4 3.3 4.4 1.8 0 3.2-1.7 3.2-4.4Zm-1 0c0 2-1 3.2-2.2 3.2-1.3 0-2.2-1.1-2.2-3.2 0-2 1-3.2 2.2-3.2 1.2 0 2.2 1.1 2.2 3.2ZM396.6 174h1.4l-3-4.7 3-3.8h-1.4l-2.8 3.6h-.4v-3.6h-1v8.5h1v-3.8h.8l2.4 3.8Zm9.9-4.3c0-2.7-1.4-4.3-3.2-4.3-2 0-3.3 1.6-3.3 4.3 0 2.8 1.4 4.4 3.3 4.4 1.8 0 3.2-1.6 3.2-4.4Zm-1 0c0 2.1-1 3.2-2.2 3.2-1.3 0-2.2-1-2.2-3.2 0-2 .9-3.1 2.2-3.1 1.2 0 2.1 1 2.1 3.1Zm3.2-3.1h2.3v7.4h1v-7.4h2.4v-1h-5.7v1Zm8.4 7.4h4.6v-1.1h-3.5v-2.6h3.2v-1.1h-3.2v-2.6h3.5v-1H417v8.4Zm6.9 0h.4c1.6 0 2-1.4 2.1-4.2l.2-3.2h2.4v7.4h1.1v-8.5h-4.6l-.1 4c0 2.4-.3 3.3-1.2 3.4h-.2v1Zm10.4-5v-3.5h-1v8.5h2.6c1.7 0 2.6-1 2.6-2.6 0-1.5-1-2.5-2.6-2.5h-1.6Zm0 1h1.6c1 0 1.5.6 1.5 1.4 0 .8-.5 1.5-1.5 1.5h-1.6V170Zm7 4h1.1v-3.7h3.7v3.7h1v-8.5h-1v3.7h-3.7v-3.7h-1v8.5Zm9-8.5v8.5h1l3.7-6.2v6.2h1.1v-8.5h-1l-3.7 6.2v-6.2h-1.1Zm9.1 0v2.8c0 1.9 1 2.6 2.5 2.6.7 0 1.3 0 1.9-.2v3.3h1v-8.5h-1v4c-.6.2-1.3.3-1.9.3-1 0-1.4-.3-1.4-1.5v-2.8h-1.1Zm11.8 3.7H468v1h3.3v-1Zm5.4-3.7h-1c0 .2-.6 1.3-1.7 1.3v1c.9 0 1.4-.3 1.6-.6v6.8h1.1v-8.5Zm51.6 45.5h-4.5v8.4h1.1v-7.3h3.4V211Zm2.2 8.4h.3c1.7 0 2-1.4 2.2-4.1l.1-3.3h2.5v7.4h1V211h-4.5l-.2 4c0 2.4-.3 3.3-1.2 3.3h-.2v1.1Zm9.9 0 .6-2.2h2.9l.6 2.2h1.2l-2.6-8.4h-1.3l-2.6 8.4h1.2Zm1-3.3 1-3.6 1.2 3.6h-2.2Zm9.3 3.4c1.5 0 2.6-1 2.6-2.4a2 2 0 0 0-1.6-2c.8-.3 1.3-1 1.3-2 0-1.2-.9-2.3-2.3-2.3-1.3 0-2.4 1-2.4 2.4h1c0-.8.7-1.3 1.4-1.3.8 0 1.2.5 1.2 1.3s-.5 1.4-1.3 1.4h-.6v1h.6c1 0 1.6.6 1.6 1.5 0 .8-.7 1.3-1.5 1.3s-1.4-.4-1.5-1.2h-1c0 1.4 1 2.3 2.5 2.3Zm11.8-4.3c0-2.7-1.4-4.4-3.3-4.4-1.8 0-3.2 1.7-3.2 4.4s1.4 4.3 3.3 4.3c1.8 0 3.2-1.6 3.2-4.3Zm-1 0c0 2-1 3.2-2.3 3.2-1.2 0-2.1-1.1-2.1-3.2 0-2 .9-3.2 2.1-3.2 1.3 0 2.2 1.1 2.2 3.2Zm3.9 4.2h2.8c1.7 0 2.4-1 2.4-2.3 0-1.3-.8-2-1.5-2v-.1c.7-.2 1.3-.8 1.3-1.8 0-1.3-.8-2.2-2.3-2.2h-2.7v8.4Zm1-1v-2.8h1.7c.9 0 1.4.7 1.4 1.5 0 .7-.4 1.2-1.4 1.2h-1.6Zm0-3.8V212h1.6c.9 0 1.3.6 1.3 1.3 0 .8-.6 1.3-1.3 1.3h-1.5Zm-34.8-78.8H526v8.5h1v-7.4h3.5v7.4h1v-8.5Zm3.1 8.5h4.6v-1.1h-3.5v-2.6h3.3v-1.1h-3.3v-2.6h3.5v-1h-4.6v8.4Zm7.6 0h1v-3h1.6c1.6 0 2.5-1.2 2.5-2.7 0-1.6-.8-2.8-2.5-2.8h-2.6v8.5Zm1-4v-3.4h1.4c1.1 0 1.6.7 1.6 1.7s-.5 1.6-1.5 1.6h-1.4Zm6.9-4.5v8.5h1v-6.1l2.2 6h.9l2.1-6h.1v6h1v-8.4h-1.3l-2.3 6.6-2.4-6.6h-1.3Zm11.8 3.4v-3.4h-1.2v8.5h2.8c1.6 0 2.5-1 2.5-2.6 0-1.5-1-2.5-2.5-2.5h-1.7Zm0 1.1h1.6c.9 0 1.4.6 1.4 1.4 0 .8-.5 1.5-1.4 1.5h-1.7v-2.9Zm36.4 40.3h2.3v7.4h1.1v-7.4h2.3v-1.1h-5.7v1Zm9.6-1.1h-1.2v8.5h1.1v-3.6h1.3c.2 2.3 1.5 3.7 3.2 3.7 2 0 3.3-1.7 3.3-4.4s-1.4-4.3-3.3-4.3c-1.8 0-3 1.4-3.2 3.9h-1.3v-3.8Zm6.6 4.2c0 2-1 3.2-2.2 3.2-1.2 0-2.2-1.1-2.2-3.2 0-2 1-3.2 2.2-3.2 1.3 0 2.2 1.2 2.2 3.2Zm3.8-4.2v8.5h1v-6.2h.1l2.1 6.2h1l2-6.2h.1v6.2h1v-8.5h-1.3l-2.3 6.6-2.4-6.6h-1.3ZM629 188h4.7v-1.1H630v-2.6h3.3v-1.1H630v-2.6h3.5v-1.1H629v8.5Zm7.6 0h1v-3.7h3.7v3.7h1.1v-8.5h-1.1v3.7h-3.6v-3.7h-1.1v8.5Zm10-5v-3.5h-1v8.5h2.6c1.6 0 2.6-1 2.6-2.6 0-1.5-1-2.5-2.6-2.5h-1.6Zm0 1h1.6c1 0 1.5.6 1.5 1.4 0 .8-.5 1.5-1.5 1.5h-1.6v-3Zm50.9 25.4c0-2.7-1.4-4.4-3.3-4.4-2 0-3.3 1.7-3.3 4.4s1.4 4.3 3.3 4.3 3.3-1.6 3.3-4.3Zm-1.1 0c0 2-1 3.2-2.2 3.2-1.3 0-2.2-1.2-2.2-3.2 0-2.1 1-3.2 2.2-3.2 1.2 0 2.2 1.1 2.2 3.2Zm3.9-4.3v8.5h1v-6.1h.1l2.2 6h.8l2.2-6v6.1h1.1v-8.5h-1.3l-2.3 6.6h-.1l-2.3-6.6h-1.4Zm16.7 2.8c-.2-1.8-1.4-2.9-3-2.9-1.9 0-3.3 1.7-3.3 4.4s1.4 4.3 3.3 4.3c1.6 0 2.8-1.1 3-2.8h-1c-.3 1-1 1.7-2 1.7-1.2 0-2.2-1.2-2.2-3.2s1-3.2 2.2-3.2c1 0 1.7.6 2 1.7h1Zm7.1 5.7h1.4l-3-4.6 3-3.9h-1.4l-2.8 3.6h-.4v-3.6h-1v8.5h1v-3.8h.8l2.4 3.8Zm81.3-92.1h1.3l-3-4.6 3-3.8h-1.3l-2.9 3.5h-.3v-3.5H801v8.4h1v-3.8h.8l2.5 3.8Zm3.9 0h1.1v-3h1.5c1.7 0 2.5-1.1 2.5-2.7 0-1.5-.8-2.7-2.5-2.7h-2.6v8.4Zm1.1-4v-3.3h1.4c1 0 1.5.6 1.5 1.6s-.4 1.7-1.5 1.7h-1.4Zm6.6 4 .7-2.2h2.9l.6 2.2h1.2l-2.6-8.4h-1.3l-2.6 8.4h1.2Zm1-3.3 1.1-3.6 1.2 3.6H818Zm12.7-2.4c-.3-1.8-1.5-2.8-3-2.8-2 0-3.3 1.6-3.3 4.3 0 2.7 1.4 4.4 3.3 4.4 1.5 0 2.7-1.2 3-2.9h-1.2a2 2 0 0 1-1.8 1.7c-1.3 0-2.2-1.1-2.2-3.2 0-2 1-3.2 2.2-3.2.9 0 1.7.6 1.8 1.7h1.2Zm2.8 5.7h1v-3.7h3.7v3.7h1v-8.4h-1v3.6h-3.6v-3.6h-1.1v8.4Zm15.2-4.2c0-2.7-1.4-4.3-3.3-4.3s-3.2 1.6-3.2 4.3c0 2.7 1.3 4.4 3.2 4.4 2 0 3.3-1.7 3.3-4.4Zm-1 0c0 2-1 3.2-2.3 3.2-1.2 0-2.2-1.1-2.2-3.2 0-2 1-3.2 2.2-3.2 1.3 0 2.2 1.1 2.2 3.2Zm8.7 4.2v-8.4h-2.6c-1.7 0-2.5 1-2.5 2.6 0 1.2.5 2 1.4 2.4l-1.7 3.4h1.3l1.5-3.2h1.5v3.2h1.1Zm-1-4.3h-1.5c-1 0-1.5-.5-1.5-1.5s.5-1.5 1.6-1.5h1.3v3Zm4.1 4.3h1.1v-3h1.5c1.7 0 2.5-1.1 2.5-2.7 0-1.5-.8-2.7-2.5-2.7h-2.6v8.4Zm1.1-4v-3.3h1.4c1 0 1.5.6 1.5 1.6s-.4 1.7-1.5 1.7h-1.4Zm12.9-1.7c-.3-1.8-1.5-2.8-3-2.8-2 0-3.3 1.6-3.3 4.3 0 2.7 1.4 4.4 3.3 4.4 1.6 0 2.7-1.2 3-2.9h-1.1a2 2 0 0 1-2 1.7c-1.2 0-2.1-1.1-2.1-3.2 0-2 1-3.2 2.2-3.2.9 0 1.7.6 1.9 1.7h1Zm7.1 5.7h1.3l-3-4.6 3-3.8h-1.3l-2.9 3.5h-.3v-3.5h-1.1v8.4h1v-3.8h.8l2.5 3.8Zm-4.7 66.5h.5c1.1 0 1.5-.7 1.8-1.5l2.5-7h-1.1l-1.7 4.9-2-5h-1l2.5 6.5-.1.3c-.2.4-.4.8-1 .8h-.4v1Zm6.8 0h.3c1.7 0 2-1.5 2.2-4.2l.1-3.2h2.5v7.4h1v-8.5h-4.5l-.2 4c0 2.4-.3 3.3-1.2 3.3h-.2v1.2Zm9.9 0 .6-2.3h2.9l.7 2.3h1.1l-2.6-8.5H894l-2.6 8.5h1.2Zm1-3.4 1-3.6h.1l1 3.6h-2.1Zm6.9 3.4h1v-3.7h3.7v3.7h1v-8.5h-1v3.7h-3.6v-3.7h-1.1v8.5Zm12-4.8h-3.2v1h3.2v-1Zm2.9 4.8h.5c1.1 0 1.5-.7 1.8-1.5l2.5-7h-1.1l-1.7 4.9-2-5h-1l2.5 6.5-.1.3c-.2.4-.4.8-1 .8h-.4v1Zm6.8 2h1v-2h5v2h1v-3.1h-.8v-7.4h-4.5l-.2 3.6c0 2.3-.5 3.3-1 3.8h-.5v3.1Zm1.8-3.1c.4-.8.7-2 .8-3.8l.1-2.5h2.4v6.3H924Zm7.7-1.6c.1 1.6 1 2.8 2.8 2.8 1.7 0 2.9-1.5 2.9-4v-.8c0-2.4-1.2-4-3-4-1.7 0-2.6 1.3-2.7 3h1.1c.1-1.2.6-1.8 1.6-1.8 1.2 0 1.8 1 1.8 2.8h-2.6v1h2.6c0 1.6-.6 2.7-1.7 2.7s-1.6-.6-1.7-1.7h-1.1Z"/>
  <path fill="#272722" d="M106.7 39.2c0 2.2-1.5 4-3.4 4-2 0-3.5-1.8-3.5-4 0-2.3 1.5-4 3.5-4 1.9 0 3.4 1.7 3.4 4Z"/>
  <path fill="#fff" fill-rule="evenodd" d="M103.3 42.1c1.3 0 2.4-1.3 2.4-3 0-1.5-1-2.8-2.4-2.8s-2.5 1.3-2.5 2.9c0 1.6 1 2.9 2.5 2.9Zm0 1.2c1.9 0 3.4-1.9 3.4-4.1 0-2.3-1.5-4-3.4-4-2 0-3.5 1.7-3.5 4 0 2.2 1.5 4 3.5 4Z" clip-rule="evenodd"/>
  <path fill="#131313" d="M21 133.8c0 2.2-1.6 4-3.5 4-2 0-3.5-1.8-3.5-4 0-2.3 1.6-4.1 3.5-4.1 2 0 3.5 1.8 3.5 4Z"/>
  <path fill="#fff" fill-rule="evenodd" d="M17.5 136.7c1.4 0 2.5-1.3 2.5-3 0-1.5-1.1-2.8-2.5-2.8s-2.5 1.3-2.5 2.9c0 1.6 1.1 2.9 2.5 2.9Zm0 1.1c2 0 3.5-1.8 3.5-4 0-2.3-1.6-4.1-3.5-4.1-2 0-3.5 1.8-3.5 4 0 2.3 1.6 4.1 3.5 4.1Z" clip-rule="evenodd"/>
  <path fill="#4D5648" d="M215 181.7c0 2.2-1.5 4-3.5 4-1.9 0-3.5-1.8-3.5-4 0-2.3 1.6-4.1 3.5-4.1 2 0 3.5 1.8 3.5 4Z"/>
  <path fill="#fff" fill-rule="evenodd" d="M211.5 184.6c1.4 0 2.5-1.3 2.5-3 0-1.5-1-2.8-2.5-2.8-1.3 0-2.5 1.3-2.5 2.9 0 1.6 1.2 2.9 2.5 2.9Zm0 1.1c2 0 3.5-1.8 3.5-4 0-2.3-1.5-4.1-3.5-4.1-1.9 0-3.5 1.8-3.5 4 0 2.3 1.6 4.1 3.5 4.1Z" clip-rule="evenodd"/>
  <path fill="#47443E" d="M247.3 207.1c0 2.3-1.5 4-3.5 4-1.9 0-3.5-1.8-3.5-4s1.6-4 3.5-4c2 0 3.5 1.8 3.5 4Z"/>
  <path fill="#fff" fill-rule="evenodd" d="M243.8 210c1.4 0 2.5-1.3 2.5-2.9 0-1.6-1-2.9-2.5-2.9-1.3 0-2.5 1.3-2.5 2.9 0 1.6 1.2 3 2.5 3Zm0 1.2c2 0 3.5-1.8 3.5-4.1 0-2.2-1.5-4-3.5-4-1.9 0-3.5 1.8-3.5 4 0 2.3 1.6 4 3.5 4Z" clip-rule="evenodd"/>
  <path fill="#93A47C" d="M335.5 148c0 2.3-1.5 4.2-3.5 4.2-1.9 0-3.5-1.9-3.5-4.1 0-2.3 1.6-4 3.5-4 2 0 3.5 1.7 3.5 4Z"/>
  <path fill="#fff" fill-rule="evenodd" d="M332 151c1.4 0 2.5-1.3 2.5-3 0-1.5-1-2.8-2.5-2.8-1.3 0-2.5 1.3-2.5 2.9 0 1.6 1.2 2.9 2.5 2.9Zm0 1.2c2 0 3.5-1.9 3.5-4.1 0-2.3-1.5-4-3.5-4-1.9 0-3.5 1.7-3.5 4 0 2.2 1.6 4 3.5 4Z" clip-rule="evenodd"/>
  <path fill="#738F8C" d="M413.2 187.8c0 2.2-1.5 4-3.4 4-2 0-3.5-1.8-3.5-4 0-2.3 1.5-4.1 3.5-4.1 1.9 0 3.4 1.8 3.4 4Z"/>
  <path fill="#fff" fill-rule="evenodd" d="M409.8 190.7c1.3 0 2.4-1.3 2.4-3 0-1.5-1-2.8-2.4-2.8s-2.5 1.3-2.5 2.9c0 1.6 1 2.9 2.5 2.9Zm0 1.1c1.9 0 3.4-1.8 3.4-4 0-2.3-1.5-4.1-3.4-4.1-2 0-3.5 1.8-3.5 4 0 2.3 1.5 4.1 3.5 4.1Z" clip-rule="evenodd"/>
  <path fill="#789186" d="M515.4 215.2c0 2.3-1.5 4.1-3.5 4.1s-3.5-1.8-3.5-4c0-2.3 1.6-4.1 3.5-4.1 2 0 3.5 1.8 3.5 4Z"/>
  <path fill="#fff" fill-rule="evenodd" d="M512 218.1c1.3 0 2.4-1.3 2.4-2.9 0-1.6-1.1-2.9-2.5-2.9s-2.5 1.3-2.5 3c0 1.5 1.1 2.8 2.5 2.8Zm0 1.2c1.9 0 3.4-1.8 3.4-4 0-2.3-1.5-4.1-3.5-4.1s-3.5 1.8-3.5 4c0 2.3 1.6 4.1 3.5 4.1Z" clip-rule="evenodd"/>
  <path fill="#8CBABB" d="M548.6 155.2c0 2.3-1.6 4-3.5 4-2 0-3.5-1.7-3.5-4 0-2.2 1.6-4 3.5-4 2 0 3.5 1.8 3.5 4Z"/>
  <path fill="#fff" fill-rule="evenodd" d="M545.1 158.1c1.4 0 2.5-1.3 2.5-2.9 0-1.6-1.1-2.9-2.5-2.9s-2.5 1.3-2.5 3c0 1.5 1.1 2.8 2.5 2.8Zm0 1.2c2 0 3.5-1.8 3.5-4 0-2.3-1.6-4.2-3.5-4.2-2 0-3.5 1.9-3.5 4.1 0 2.3 1.6 4 3.5 4Z" clip-rule="evenodd"/>
  <path fill="#414847" d="M605.4 201c0 2.2-1.6 4-3.5 4-2 0-3.5-1.8-3.5-4 0-2.3 1.5-4 3.5-4 1.9 0 3.5 1.8 3.5 4Z"/>
  <path fill="#fff" fill-rule="evenodd" d="M601.9 203.9c1.3 0 2.5-1.3 2.5-2.9 0-1.6-1.2-3-2.5-3-1.4 0-2.5 1.4-2.5 3s1 2.9 2.5 2.9Zm0 1.2c1.9 0 3.5-1.9 3.5-4.1 0-2.3-1.6-4-3.5-4-2 0-3.5 1.8-3.5 4s1.5 4 3.5 4Z" clip-rule="evenodd"/>
  <path fill="#577379" d="M711 185.7c0 2.3-1.5 4.1-3.5 4.1-1.9 0-3.5-1.8-3.5-4 0-2.3 1.6-4.1 3.5-4.1 2 0 3.5 1.8 3.5 4Z"/>
  <path fill="#fff" fill-rule="evenodd" d="M707.5 188.6c1.4 0 2.5-1.3 2.5-2.9 0-1.6-1.1-2.9-2.5-2.9s-2.5 1.3-2.5 3c0 1.5 1.1 2.8 2.5 2.8Zm0 1.2c2 0 3.5-1.8 3.5-4 0-2.3-1.5-4.1-3.5-4.1-1.9 0-3.5 1.8-3.5 4 0 2.3 1.6 4.1 3.5 4.1Z" clip-rule="evenodd"/>
  <path fill="#3E403A" d="M846 130.8c0 2.2-1.6 4-3.5 4-2 0-3.5-1.8-3.5-4 0-2.3 1.5-4 3.5-4 1.9 0 3.5 1.7 3.5 4Z"/>
  <path fill="#fff" fill-rule="evenodd" d="M842.5 133.7c1.3 0 2.5-1.3 2.5-3 0-1.5-1.2-2.8-2.5-2.8-1.4 0-2.5 1.3-2.5 2.9 0 1.6 1 2.9 2.5 2.9Zm0 1.2c1.9 0 3.5-1.9 3.5-4.1 0-2.3-1.6-4-3.5-4-2 0-3.5 1.7-3.5 4 0 2.2 1.5 4 3.5 4Z" clip-rule="evenodd"/>
  <path fill="#181A19" d="M909 162.9c0 2.3-1.6 4-3.5 4-2 0-3.5-1.7-3.5-4 0-2.2 1.6-4 3.5-4 2 0 3.5 1.8 3.5 4Z"/>
  <path fill="#fff" fill-rule="evenodd" d="M905.5 165.8c1.4 0 2.5-1.3 2.5-2.9 0-1.6-1.1-2.9-2.5-2.9s-2.5 1.3-2.5 2.9c0 1.6 1.1 3 2.5 3Zm0 1.2c2 0 3.5-1.8 3.5-4.1 0-2.2-1.6-4-3.5-4-2 0-3.5 1.8-3.5 4 0 2.3 1.6 4 3.5 4Z" clip-rule="evenodd"/>
</svg>
